<svg width="56" height="36" viewBox="0 0 56 36" fill="none" xmlns="http://www.w3.org/2000/svg">
<g clip-path="url(#clip0_26_179)">
<path fill-rule="evenodd" clip-rule="evenodd" d="M99.42 14.0701C105.35 14.0701 110.15 18.8701 110.15 24.8001C110.15 30.7301 105.35 35.5301 99.42 35.5301C93.49 35.5301 88.69 30.7301 88.69 24.8001C88.69 18.8701 93.49 14.0701 99.42 14.0701ZM79.05 5.5001C78.46 6.7701 77.99 8.19009 77.63 9.73009C76.88 12.0807 77.8282 12.7331 80.138 12.024C80.5959 11.8834 81.0269 11.6666 81.438 11.4208C83.292 10.3122 85.146 9.19709 87 8.0901C88.05 7.3501 88.55 6.6201 88.38 5.9001C88.04 4.4801 85.3 3.7401 83.05 3.3001C80.19 2.7301 80.39 2.6101 79.05 5.5001ZM23.86 19.8101C26.61 19.8101 28.85 22.0401 28.85 24.8001C28.85 27.5501 26.62 29.7901 23.86 29.7901C21.11 29.7901 18.87 27.5601 18.87 24.8001C18.87 22.0401 21.1 19.8101 23.86 19.8101ZM99.42 19.8101C102.17 19.8101 104.41 22.0401 104.41 24.8001C104.41 27.5501 102.18 29.7901 99.42 29.7901C96.67 29.7901 94.43 27.5601 94.43 24.8001C94.43 22.0401 96.66 19.8101 99.42 19.8101ZM58.005 13.0001C53.4954 13.0001 51.7809 8.26556 55.81 6.2401C61.3297 3.4598 65.3913 2.80631 70.1402 2.6721C73.6705 2.57233 76.1045 6.20391 74.8346 9.49934C74.6657 9.93768 74.4419 10.3551 74.1379 10.7133C73.032 12.0159 71.7511 12.9033 69.92 13.0001H58.005ZM23.86 14.0701C29.79 14.0701 34.59 18.8701 34.59 24.8001C34.59 30.7301 29.79 35.5301 23.86 35.5301C17.93 35.5301 13.13 30.7301 13.13 24.8001C13.13 18.8701 17.93 14.0701 23.86 14.0701ZM37.7155 10.3046C39.7224 10.5642 41.7655 10.1883 43.5293 9.19626C46.2875 7.64494 49.2337 6.23115 52.41 4.9801C65.32 -0.109904 75.19 -1.0199 88.73 3.0801C92.81 4.6301 96.89 6.1801 100.97 7.1401C104.319 7.93793 116.938 8.70815 121.352 10.6275C122.579 11.1609 122.389 12.5367 121.531 13.5625C119.887 15.5259 120.336 18.3876 121.315 20.7531C121.474 21.1352 121.611 21.5419 121.723 21.9767C121.853 22.4788 121.878 23.0034 121.8 23.5162C121.606 24.7885 121.195 25.8784 120.56 26.7801C119.27 28.6301 115.49 30.5401 113.45 29.4501C112.8 29.1001 112.43 28.4001 112.44 27.2101C112.492 6.60084 91.0465 5.78573 86.5314 21.3408C85.2205 25.8571 81.7667 30.0301 77.064 30.0301H47.1617C41.5383 30.0301 38.2266 23.8111 36.0207 18.6385C31.4299 7.87341 10.5238 9.96332 11.2745 24.6865C11.4191 27.5228 10.3654 30.6925 7.8696 29.3372C5.52657 28.0649 2.82864 25.0554 0.656692 20.6596C0.242124 19.8205 0.432987 18.8088 1.13238 18.1869C1.77443 17.616 2.45386 17.0644 3.17656 16.536C3.29918 16.4464 3.34654 16.3213 3.27 16.1901C3.06 15.8301 3.78 14.3201 5.26 13.4501C12.2179 9.37042 27.979 9.04519 37.7155 10.3046Z" fill="url(#paint0_linear_26_179)"/>
</g>
<defs>
<linearGradient id="paint0_linear_26_179" x1="122.88" y1="33.8315" x2="-1.90541e-06" y2="2.20235" gradientUnits="userSpaceOnUse">
<stop offset="0.46636" stop-color="#293FCB"/>
<stop offset="1" stop-color="#006EFA"/>
</linearGradient>
<clipPath id="clip0_26_179">
<rect width="122.88" height="35.03" fill="white" transform="translate(0 0.5)"/>
</clipPath>
</defs>
</svg>
